<svg xmlns="http://www.w3.org/2000/svg" width="51.09" height="51.09" viewBox="0 0 51.09 51.09">
  <g id="Group_175" data-name="Group 175">
    <path id="Path_4000" data-name="Path 4000" d="M639.466,254.037a25.545,25.545,0,1,1,25.545-25.545A25.574,25.574,0,0,1,639.466,254.037Z" transform="translate(-613.92 -202.947)" fill="#fad449"/>
  </g>
  <g id="Group_176" data-name="Group 176" transform="translate(18.405 10.234)">
    <path id="Path_4001" data-name="Path 4001" d="M636.719,229.313v14.805a.386.386,0,0,0,.386.386h5.5a.386.386,0,0,0,.386-.386V229.072h3.986a.385.385,0,0,0,.384-.353l.384-4.534a.387.387,0,0,0-.385-.418h-4.369v-3.216a1.365,1.365,0,0,1,1.365-1.366h3.073a.386.386,0,0,0,.386-.386v-4.533a.386.386,0,0,0-.386-.386h-5.191a5.515,5.515,0,0,0-5.516,5.516v4.37H633.97a.386.386,0,0,0-.386.386v4.534a.385.385,0,0,0,.386.386h2.749Z" transform="translate(-633.584 -213.881)" fill="#fff" fill-rule="evenodd"/>
  </g>
</svg>
