<svg id="Group_187" data-name="Group 187" xmlns="http://www.w3.org/2000/svg" width="50.757" height="50.757" viewBox="0 0 50.757 50.757">
  <path id="Path_4005" data-name="Path 4005" d="M721.382,254.388A25.379,25.379,0,1,1,746.76,229.01,25.408,25.408,0,0,1,721.382,254.388Zm8.557-35.676a1.878,1.878,0,1,0,1.879,1.879A1.878,1.878,0,0,0,729.939,218.712Zm-8.349,2.408a7.889,7.889,0,1,0,7.888,7.889A7.9,7.9,0,0,0,721.59,221.121Zm0,12.943a5.053,5.053,0,1,1,5.053-5.053A5.059,5.059,0,0,1,721.59,234.063Zm15.917-11.61a9.622,9.622,0,0,0-9.622-9.622h-12.7a9.622,9.622,0,0,0-9.622,9.622v12.7a9.622,9.622,0,0,0,9.622,9.622h12.7a9.622,9.622,0,0,0,9.622-9.622Zm-3.013,12.7a6.608,6.608,0,0,1-6.609,6.608h-12.7a6.608,6.608,0,0,1-6.608-6.608v-12.7a6.608,6.608,0,0,1,6.608-6.608h12.7a6.608,6.608,0,0,1,6.609,6.608Z" transform="translate(-696.003 -203.631)" fill="#fad449"/>
</svg>
