<svg xmlns="http://www.w3.org/2000/svg" width="51.004" height="51.004" viewBox="0 0 51.004 51.004">
  <path id="Path_4002" data-name="Path 4002" d="M639.469,319.1a25.5,25.5,0,1,1,25.5-25.5A25.531,25.531,0,0,1,639.469,319.1Z" transform="translate(-613.966 -268.094)" fill="#fad449"/>
  <g id="Group_180" data-name="Group 180" transform="translate(13.358 19.637)">
    <g id="Group_179" data-name="Group 179">
      <path id="Path_4003" data-name="Path 4003" d="M654.8,296.881V306.4a.426.426,0,0,1-.427.426h-4.916a.426.426,0,0,1-.426-.426v-8.855c0-2.331-.832-3.922-2.921-3.922a3.154,3.154,0,0,0-2.958,2.109,3.93,3.93,0,0,0-.192,1.406V306.4a.426.426,0,0,1-.426.426h-4.914a.424.424,0,0,1-.426-.426c.011-2.359.061-13.8.01-16.49a.424.424,0,0,1,.426-.432h4.9a.426.426,0,0,1,.426.427v2.032c-.011.02-.028.038-.038.057h.038v-.057a5.727,5.727,0,0,1,5.2-2.866c3.794,0,6.64,2.479,6.64,7.807Zm-26.136,9.948h4.915A.426.426,0,0,0,634,306.4V289.908a.426.426,0,0,0-.426-.427h-4.915a.426.426,0,0,0-.426.427V306.4A.426.426,0,0,0,628.664,306.829Z" transform="translate(-628.238 -289.074)" fill="#fff"/>
    </g>
  </g>
</svg>
